<svg width="1024" height="1024" viewBox="0 0 1024 1024" fill="none" xmlns="http://www.w3.org/2000/svg">
  <!-- Dark navy blue background -->
  <rect width="1024" height="1024" fill="#0a1628"/>

  <!-- Subtle radial gradient overlay for depth -->
  <defs>
    <radialGradient id="glow" cx="50%" cy="45%" r="60%">
      <stop offset="0%" stop-color="#1e3a5f" stop-opacity="0.5"/>
      <stop offset="100%" stop-color="#0a1628" stop-opacity="0"/>
    </radialGradient>
  </defs>
  <rect width="1024" height="1024" fill="url(#glow)"/>

  <!-- Pleiades star cluster -->
  <!-- Alcyone (brightest, center) -->
  <circle cx="512" cy="320" r="52" fill="white"/>
  <circle cx="512" cy="320" r="78" fill="white" opacity="0.12"/>

  <!-- Atlas -->
  <circle cx="660" cy="190" r="38" fill="white" opacity="0.9"/>
  <circle cx="660" cy="190" r="56" fill="white" opacity="0.08"/>

  <!-- Electra -->
  <circle cx="364" cy="220" r="34" fill="white" opacity="0.85"/>
  <circle cx="364" cy="220" r="50" fill="white" opacity="0.08"/>

  <!-- Maia -->
  <circle cx="720" cy="360" r="30" fill="white" opacity="0.8"/>
  <circle cx="720" cy="360" r="45" fill="white" opacity="0.06"/>

  <!-- Merope -->
  <circle cx="304" cy="380" r="30" fill="white" opacity="0.75"/>
  <circle cx="304" cy="380" r="45" fill="white" opacity="0.06"/>

  <!-- Taygeta -->
  <circle cx="590" cy="460" r="26" fill="white" opacity="0.7"/>
  <circle cx="590" cy="460" r="40" fill="white" opacity="0.05"/>

  <!-- Pleione -->
  <circle cx="780" cy="250" r="22" fill="white" opacity="0.65"/>
  <circle cx="780" cy="250" r="34" fill="white" opacity="0.05"/>

  <!-- Extra small background stars -->
  <circle cx="260" cy="150" r="8" fill="white" opacity="0.3"/>
  <circle cx="764" cy="130" r="7" fill="white" opacity="0.25"/>
  <circle cx="180" cy="300" r="6" fill="white" opacity="0.2"/>
  <circle cx="844" cy="420" r="8" fill="white" opacity="0.25"/>
  <circle cx="430" cy="500" r="6" fill="white" opacity="0.2"/>
  <circle cx="240" cy="480" r="5" fill="white" opacity="0.15"/>
  <circle cx="800" cy="520" r="5" fill="white" opacity="0.15"/>

  <!-- Subtle nebula glow -->
  <ellipse cx="512" cy="330" rx="300" ry="200" fill="white" opacity="0.025"/>

  <!-- P letter -->
  <path d="M295 580 L295 880 L375 880 L375 770 L460 770 Q560 770 560 675 Q560 580 460 580 L295 580 Z M375 650 L440 650 Q480 650 480 675 Q480 700 440 700 L375 700 L375 650 Z" fill="white"/>

  <!-- 7 number -->
  <path d="M590 580 L590 650 L665 650 L590 880 L680 880 L770 620 L770 580 L590 580 Z" fill="white"/>

  <!-- Subtle underline accent -->
  <rect x="280" y="910" width="464" height="8" rx="4" fill="white" opacity="0.25"/>
</svg>
